# xmcd
#
# Track frame offsets:
#	150
#	10081
#	21876
#	32651
#	43112
#	55680
#	68499
#	81190
#	93914
#	105943
#	118822
#	130200
#	142820
#	155869
#	166846
#	178645
#	191589
#	204695
#	216838
#	229042
#	242528
#
# Disc length: 3397 seconds
#
# Revision: 1
# Processed by: cddbd v1.5.1PL2 Copyright (c) Steve Scherf et al.
# Submitted via: audiograbber 1.83.01
#
DISCID=120d4315
DTITLE=Various Artist - (IEDS10001-5) Cradle Of Country and Western Music
DYEAR=1955
DGENRE=Country
TTITLE0=Tennessee Ernie Ford - Rock City Boogie
TTITLE1=Bill Haley - Wreck On The Highway
TTITLE2=Hank Williams - Why Don´t You Love Me
TTITLE3=Tennessee Ernie Ford - Taylor Made Woman
TTITLE4=Al Dexter - Pistol Packin´ Mama
TTITLE5=Hank Penny - Steel Guitar Stomp
TTITLE6=Bill Haley - Candy And Women
TTITLE7=Carl Smith - Let Old Mother Nature
TTITLE8=Spade Cooley - Three Way Boogie
TTITLE9=Floyd Tillman - This Cold War With You
TTITLE10=Johnny Tyler - Two Can Play Your Game
TTITLE11=Chuk Wagon Gang - After The Sunrise
TTITLE12=Red Woodward - Cowboy Boogie
TTITLE13=Radio Cowboys - Mississippi Muddle
TTITLE14=Curley Williams - Fiddlin´ Boogie
TTITLE15=Nolan Bush - Until You Went Away
TTITLE16=Delmore Brothers - Barnyard Boogie
TTITLE17=Boots Woodall - Since You´ve Been Gone
TTITLE18=Floyd Tillman - I Love You So Much It Hurts
TTITLE19=Leon McAuliffe - Blue Guitar Stomp
TTITLE20=Kentucky Ramblers - With My Mother
EXTD=
EXTT0=
EXTT1=
EXTT2=
EXTT3=
EXTT4=
EXTT5=
EXTT6=
EXTT7=
EXTT8=
EXTT9=
EXTT10=
EXTT11=
EXTT12=
EXTT13=
EXTT14=
EXTT15=
EXTT16=
EXTT17=
EXTT18=
EXTT19=
EXTT20=
PLAYORDER=
